<mxfile host="" modified="2020-05-25T20:58:35.396Z" agent="5.0 (Macintosh; Intel Mac OS X 10_15_4) AppleWebKit/537.36 (KHTML, like Gecko) Code/1.45.1 Chrome/78.0.3904.130 Electron/7.2.4 Safari/537.36" etag="IwWZ-5ZqC1R8IvgXv_uO" version="13.1.3">
    <diagram id="Sttl8mKHboSlKdve3zSI" name="Page-1">
        <mxGraphModel dx="625" dy="579" grid="1" gridSize="10" guides="1" tooltips="1" connect="1" arrows="1" fold="1" page="1" pageScale="1" pageWidth="827" pageHeight="1169" math="0" shadow="0">
            <root>
                <mxCell id="0"/>
                <mxCell id="1" parent="0"/>
                <mxCell id="103" value="diplomatiq.org (Azure Active Directory)" style="swimlane;html=1;startSize=20;horizontal=1;containerType=tree;" parent="1" vertex="1">
                    <mxGeometry x="130" y="40" width="560" height="420" as="geometry">
                        <mxRectangle x="120" y="140" width="120" height="20" as="alternateBounds"/>
                    </mxGeometry>
                </mxCell>
                <mxCell id="107" value="diplomatiq-prod-001 (subscription)" style="swimlane;html=1;startSize=20;horizontal=1;containerType=tree;" parent="103" vertex="1">
                    <mxGeometry x="10" y="30" width="540" height="380" as="geometry"/>
                </mxCell>
                <mxCell id="111" value="rg-northeurope-prod-001 (resource group)" style="swimlane;fontStyle=1;startSize=20;" parent="107" vertex="1">
                    <mxGeometry x="10" y="30" width="520" height="340" as="geometry"/>
                </mxCell>
                <mxCell id="112" value="vnet-prod-northeurope-001 (virtual network)" style="swimlane;startSize=20;" parent="111" vertex="1">
                    <mxGeometry x="10" y="30" width="500" height="300" as="geometry"/>
                </mxCell>
                <mxCell id="132" style="edgeStyle=orthogonalEdgeStyle;rounded=0;orthogonalLoop=1;jettySize=auto;html=1;exitX=1;exitY=0.5;exitDx=0;exitDy=0;entryX=0;entryY=0.5;entryDx=0;entryDy=0;endArrow=classic;endFill=1;strokeWidth=1;" parent="112" source="113" target="114" edge="1">
                    <mxGeometry relative="1" as="geometry"/>
                </mxCell>
                <mxCell id="113" value="snet-prod-northeurope-001 (subnet)" style="swimlane;startSize=20;strokeWidth=2;" parent="112" vertex="1">
                    <mxGeometry x="10" y="30" width="230" height="260" as="geometry"/>
                </mxCell>
                <mxCell id="115" value="&lt;b&gt;app-diplomatiqbackend-prod-001&lt;/b&gt;&lt;br&gt;(production / staging / develop slots)" style="rounded=0;whiteSpace=wrap;html=1;" parent="113" vertex="1">
                    <mxGeometry x="10" y="190" width="210" height="60" as="geometry"/>
                </mxCell>
                <mxCell id="116" value="&lt;b&gt;app-diplomatiqwebsite-prod-001&lt;/b&gt;&lt;br&gt;(production / staging slots)" style="rounded=0;whiteSpace=wrap;html=1;" parent="113" vertex="1">
                    <mxGeometry x="10" y="30" width="210" height="60" as="geometry"/>
                </mxCell>
                <mxCell id="127" style="edgeStyle=orthogonalEdgeStyle;rounded=0;orthogonalLoop=1;jettySize=auto;html=1;exitX=0.5;exitY=1;exitDx=0;exitDy=0;entryX=0.5;entryY=0;entryDx=0;entryDy=0;strokeWidth=1;" parent="113" source="117" target="115" edge="1">
                    <mxGeometry relative="1" as="geometry"/>
                </mxCell>
                <mxCell id="117" value="&lt;b&gt;app-diplomatiqfrontend-prod-001&lt;/b&gt;&lt;br&gt;(production / staging / develop slots)" style="rounded=0;whiteSpace=wrap;html=1;" parent="113" vertex="1">
                    <mxGeometry x="10" y="110" width="210" height="60" as="geometry"/>
                </mxCell>
                <mxCell id="114" value="snet-prod-northeurope-002 (subnet)" style="swimlane;startSize=20;strokeWidth=2;" parent="112" vertex="1">
                    <mxGeometry x="260" y="30" width="230" height="260" as="geometry"/>
                </mxCell>
                <mxCell id="118" value="&lt;b&gt;vmneo4j001&lt;/b&gt;" style="shape=cylinder;whiteSpace=wrap;html=1;boundedLbl=1;backgroundOutline=1;" parent="114" vertex="1">
                    <mxGeometry x="10" y="30" width="210" height="80" as="geometry"/>
                </mxCell>
                <mxCell id="119" value="&lt;b&gt;kv-prodcreds-prod-001&lt;/b&gt;" style="rounded=0;whiteSpace=wrap;html=1;" parent="114" vertex="1">
                    <mxGeometry x="10" y="130" width="210" height="50" as="geometry"/>
                </mxCell>
                <mxCell id="120" value="&lt;b&gt;kv-sslcerts-prod-001&lt;/b&gt;" style="rounded=0;whiteSpace=wrap;html=1;" parent="114" vertex="1">
                    <mxGeometry x="10" y="200" width="210" height="50" as="geometry"/>
                </mxCell>
                <mxCell id="123" style="edgeStyle=orthogonalEdgeStyle;rounded=0;orthogonalLoop=1;jettySize=auto;html=1;exitX=0.5;exitY=0;exitDx=0;exitDy=0;exitPerimeter=0;entryX=0.5;entryY=1;entryDx=0;entryDy=0;endArrow=none;endFill=0;strokeWidth=2;" parent="1" source="121" target="113" edge="1">
                    <mxGeometry relative="1" as="geometry"/>
                </mxCell>
                <mxCell id="121" value="allow all incoming traffic&lt;br&gt;from the Internet on ports&lt;br&gt;80 (HTTP) and 443 (HTTPS)" style="shape=note;whiteSpace=wrap;html=1;backgroundOutline=1;darkOpacity=0.05;size=17;strokeWidth=2;" parent="1" vertex="1">
                    <mxGeometry x="180" y="470" width="210" height="70" as="geometry"/>
                </mxCell>
                <mxCell id="125" style="edgeStyle=orthogonalEdgeStyle;rounded=0;orthogonalLoop=1;jettySize=auto;html=1;exitX=0.5;exitY=0;exitDx=0;exitDy=0;exitPerimeter=0;entryX=0.5;entryY=1;entryDx=0;entryDy=0;endArrow=none;endFill=0;strokeWidth=2;" parent="1" source="124" target="114" edge="1">
                    <mxGeometry relative="1" as="geometry"/>
                </mxCell>
                <mxCell id="124" value="deny all incoming traffic&lt;br&gt;from the internet,&lt;br&gt;but allow all incoming traffic&lt;br&gt;from &lt;b&gt;snet-prod-northeurope-001&lt;/b&gt;" style="shape=note;whiteSpace=wrap;html=1;backgroundOutline=1;darkOpacity=0.05;size=16;strokeWidth=2;" parent="1" vertex="1">
                    <mxGeometry x="430" y="470" width="210" height="70" as="geometry"/>
                </mxCell>
            </root>
        </mxGraphModel>
    </diagram>
</mxfile>
